 
 
  
 <svg width="214" height="29" viewBox="0 0 214 29" fill="none" xmlns="http://www.w3.org/2000/svg">
<path d="M42.512 17.428V19.108C42.528 19.364 42.64 19.564 42.848 19.708C43.072 19.836 43.296 19.9 43.52 19.9L45.848 19.852C46.328 19.852 46.664 19.932 46.856 20.092C47.064 20.236 47.168 20.492 47.168 20.86V22.54C47.168 22.812 47.112 23.044 47 23.236C46.904 23.412 46.64 23.5 46.208 23.5H39.872C38.912 23.5 38.432 22.86 38.432 21.58V8.38C38.432 7.916 38.464 7.548 38.528 7.276C38.608 7.004 38.76 6.804 38.984 6.676C39.224 6.532 39.52 6.46 39.872 6.46H46.064C46.384 6.46 46.648 6.524 46.856 6.652C47.08 6.78 47.192 6.956 47.192 7.18V9.22C47.192 9.412 47.12 9.564 46.976 9.676C46.848 9.772 46.56 9.82 46.112 9.82L43.832 9.772C43.528 9.772 43.264 9.812 43.04 9.892C42.816 9.956 42.672 10.076 42.608 10.252C42.544 10.412 42.512 10.668 42.512 11.02C42.512 11.852 42.56 12.372 42.656 12.58C42.768 12.788 42.944 12.908 43.184 12.94C43.424 12.972 43.6 12.988 43.712 12.988L45.992 12.94C46.264 12.94 46.48 13.036 46.64 13.228C46.8 13.42 46.88 13.692 46.88 14.044V15.58C46.88 15.82 46.808 16.012 46.664 16.156C46.536 16.284 46.24 16.348 45.776 16.348L43.28 16.3C42.928 16.3 42.712 16.38 42.632 16.54C42.552 16.684 42.512 16.98 42.512 17.428ZM56.8979 14.284C56.9139 14.124 56.9459 13.82 56.9939 13.372C57.0579 12.924 57.1699 11.972 57.3299 10.516C57.5059 9.06 57.6499 8.108 57.7619 7.66C57.8739 7.196 58.0099 6.876 58.1699 6.7C58.3459 6.524 58.6659 6.436 59.1299 6.436H60.0659C60.6419 6.436 61.0579 6.508 61.3139 6.652C61.5699 6.796 61.6979 7.084 61.6979 7.516C61.6979 7.644 61.6659 7.916 61.6019 8.332C61.5379 8.748 61.2179 10.412 60.6419 13.324C60.0819 16.236 59.5539 18.988 59.0579 21.58C58.8019 22.86 58.2419 23.5 57.3779 23.5H54.3779C53.4979 23.5 52.9459 22.86 52.7219 21.58C52.4659 20.076 52.1939 18.532 51.9059 16.948C51.6179 15.348 51.2659 13.436 50.8499 11.212C50.4339 8.988 50.2259 7.756 50.2259 7.516C50.2259 7.164 50.3219 6.892 50.5139 6.7C50.7059 6.508 51.1939 6.412 51.9779 6.412H53.0099C53.4259 6.412 53.7379 6.492 53.9459 6.652C54.1699 6.796 54.3539 7.132 54.4979 7.66C54.6419 8.188 54.7939 9.18 54.9539 10.636C54.9859 10.924 55.0339 11.404 55.0979 12.076C55.1779 12.748 55.2979 13.948 55.4579 15.676C55.6339 17.404 55.7539 18.42 55.8179 18.724C55.8979 19.028 55.9619 19.204 56.0099 19.252C56.0579 19.284 56.0899 19.3 56.1059 19.3C56.1859 19.3 56.2579 19.116 56.3219 18.748C56.4019 18.38 56.4979 17.668 56.6099 16.612C56.7379 15.54 56.8339 14.764 56.8979 14.284ZM68.8511 17.428V19.108C68.8671 19.364 68.9791 19.564 69.1871 19.708C69.4111 19.836 69.6351 19.9 69.8591 19.9L72.1871 19.852C72.6671 19.852 73.0031 19.932 73.1951 20.092C73.4031 20.236 73.5071 20.492 73.5071 20.86V22.54C73.5071 22.812 73.4511 23.044 73.3391 23.236C73.2431 23.412 72.9791 23.5 72.5471 23.5H66.2111C65.2511 23.5 64.7711 22.86 64.7711 21.58V8.38C64.7711 7.916 64.8031 7.548 64.8671 7.276C64.9471 7.004 65.0991 6.804 65.3231 6.676C65.5631 6.532 65.8591 6.46 66.2111 6.46H72.4031C72.7231 6.46 72.9871 6.524 73.1951 6.652C73.4191 6.78 73.5311 6.956 73.5311 7.18V9.22C73.5311 9.412 73.4591 9.564 73.3151 9.676C73.1871 9.772 72.8991 9.82 72.4511 9.82L70.1711 9.772C69.8671 9.772 69.6031 9.812 69.3791 9.892C69.1551 9.956 69.0111 10.076 68.9471 10.252C68.8831 10.412 68.8511 10.668 68.8511 11.02C68.8511 11.852 68.8991 12.372 68.9951 12.58C69.1071 12.788 69.2831 12.908 69.5231 12.94C69.7631 12.972 69.9391 12.988 70.0511 12.988L72.3311 12.94C72.6031 12.94 72.8191 13.036 72.9791 13.228C73.1391 13.42 73.2191 13.692 73.2191 14.044V15.58C73.2191 15.82 73.1471 16.012 73.0031 16.156C72.8751 16.284 72.5791 16.348 72.1151 16.348L69.6191 16.3C69.2671 16.3 69.0511 16.38 68.9711 16.54C68.8911 16.684 68.8511 16.98 68.8511 17.428ZM78.197 6.46H82.877C84.333 6.46 85.461 6.908 86.261 7.804C87.061 8.684 87.461 10.036 87.461 11.86C87.461 12.628 87.421 13.244 87.341 13.708C87.277 14.156 87.125 14.564 86.885 14.932C86.645 15.284 86.373 15.588 86.069 15.844C85.941 15.956 85.765 16.068 85.541 16.18C85.317 16.276 85.165 16.364 85.085 16.444C85.005 16.524 84.965 16.708 84.965 16.996C84.965 17.396 85.013 17.78 85.109 18.148C85.221 18.516 85.365 18.78 85.541 18.94C85.717 19.1 85.893 19.18 86.069 19.18C86.165 19.18 86.261 19.172 86.357 19.156C86.469 19.14 86.573 19.124 86.669 19.108C86.765 19.076 86.821 19.06 86.837 19.06C87.109 19.06 87.325 19.164 87.485 19.372C87.645 19.58 87.725 20.06 87.725 20.812L87.701 22.708C87.701 22.996 87.597 23.22 87.389 23.38C87.197 23.54 86.821 23.62 86.261 23.62C85.733 23.62 85.213 23.508 84.701 23.284C84.189 23.06 83.733 22.668 83.333 22.108C82.933 21.548 82.645 20.916 82.469 20.212C82.341 19.7 82.181 19.236 81.989 18.82C81.813 18.404 81.629 18.1 81.437 17.908C81.245 17.7 81.109 17.596 81.029 17.596C80.901 17.596 80.837 17.788 80.837 18.172V21.58C80.837 22.044 80.797 22.412 80.717 22.684C80.653 22.956 80.501 23.164 80.261 23.308C80.037 23.436 79.749 23.5 79.397 23.5H77.717C77.509 23.5 77.317 23.436 77.141 23.308C76.981 23.18 76.877 22.98 76.829 22.708C76.781 22.42 76.757 22.044 76.757 21.58V8.38C76.757 7.916 76.789 7.548 76.853 7.276C76.933 7.004 77.085 6.804 77.309 6.676C77.549 6.532 77.845 6.46 78.197 6.46ZM81.917 9.7C81.565 9.7 81.293 9.748 81.101 9.844C80.909 9.924 80.813 10.22 80.813 10.732L80.837 12.1L80.813 13.3C80.813 13.604 80.853 13.836 80.933 13.996C81.029 14.156 81.357 14.236 81.917 14.236C82.797 14.236 83.237 13.524 83.237 12.1C83.237 11.636 83.181 11.212 83.069 10.828C82.973 10.428 82.813 10.14 82.589 9.964C82.381 9.788 82.157 9.7 81.917 9.7ZM98.5927 18.628C98.5447 18.628 98.4647 18.78 98.3527 19.084C98.2567 19.372 98.0007 20.284 97.5847 21.82C97.4727 22.236 97.3367 22.58 97.1767 22.852C97.0167 23.124 96.8247 23.3 96.6007 23.38C96.3927 23.46 96.0967 23.5 95.7127 23.5H94.3927C93.9127 23.5 93.5527 23.412 93.3127 23.236C93.0727 23.044 92.9047 22.804 92.8087 22.516C92.7287 22.228 92.6487 21.916 92.5687 21.58C92.3127 20.332 91.8407 17.692 91.1527 13.66C90.4807 9.612 90.1447 7.42 90.1447 7.084C90.1447 6.892 90.1687 6.74 90.2167 6.628C90.2647 6.516 90.4407 6.46 90.7447 6.46H93.3367C93.5607 6.46 93.7367 6.516 93.8647 6.628C94.0087 6.74 94.1127 7.028 94.1767 7.492L95.7367 17.884C95.7367 17.964 95.7687 18.004 95.8327 18.004C95.8807 18.004 95.9207 17.964 95.9527 17.884C95.9847 17.676 96.1207 16.692 96.3607 14.932C96.6007 13.156 96.7207 12.148 96.7207 11.908C96.6887 11.716 96.5687 10.972 96.3607 9.676C96.1527 8.38 96.0407 7.628 96.0247 7.42L96.0007 7.084C96.0007 6.668 96.1927 6.46 96.5767 6.46L98.1607 6.508L100.225 6.46C100.593 6.46 100.777 6.668 100.777 7.084L100.753 7.42C100.753 7.452 100.745 7.508 100.729 7.588C100.729 7.668 100.665 8.252 100.537 9.34C100.409 10.428 100.345 11.292 100.345 11.932C100.345 12.22 100.705 14.204 101.425 17.884C101.425 17.964 101.457 18.004 101.521 18.004C101.569 18.004 101.609 17.964 101.641 17.884L102.673 7.42C102.705 6.78 102.969 6.46 103.465 6.46H106.273C106.369 6.46 106.465 6.484 106.561 6.532C106.673 6.58 106.729 6.748 106.729 7.036C106.729 7.42 106.433 9.652 105.841 13.732C105.265 17.796 104.865 20.412 104.641 21.58C104.529 22.204 104.417 22.636 104.305 22.876C104.193 23.1 104.033 23.26 103.825 23.356C103.617 23.452 103.369 23.5 103.081 23.5H101.353C100.953 23.5 100.657 23.46 100.465 23.38C100.273 23.3 100.113 23.132 99.9847 22.876C99.8567 22.604 99.7447 22.252 99.6487 21.82C99.4247 20.86 99.2247 20.092 99.0487 19.516C98.8727 18.924 98.7207 18.628 98.5927 18.628ZM113.879 17.428V19.108C113.895 19.364 114.007 19.564 114.215 19.708C114.439 19.836 114.663 19.9 114.887 19.9L117.215 19.852C117.695 19.852 118.031 19.932 118.223 20.092C118.431 20.236 118.535 20.492 118.535 20.86V22.54C118.535 22.812 118.479 23.044 118.367 23.236C118.271 23.412 118.007 23.5 117.575 23.5H111.239C110.279 23.5 109.799 22.86 109.799 21.58V8.38C109.799 7.916 109.831 7.548 109.895 7.276C109.975 7.004 110.127 6.804 110.351 6.676C110.591 6.532 110.887 6.46 111.239 6.46H117.431C117.751 6.46 118.015 6.524 118.223 6.652C118.447 6.78 118.559 6.956 118.559 7.18V9.22C118.559 9.412 118.487 9.564 118.343 9.676C118.215 9.772 117.927 9.82 117.479 9.82L115.199 9.772C114.895 9.772 114.631 9.812 114.407 9.892C114.183 9.956 114.039 10.076 113.975 10.252C113.911 10.412 113.879 10.668 113.879 11.02C113.879 11.852 113.927 12.372 114.023 12.58C114.135 12.788 114.311 12.908 114.551 12.94C114.791 12.972 114.967 12.988 115.079 12.988L117.359 12.94C117.631 12.94 117.847 13.036 118.007 13.228C118.167 13.42 118.247 13.692 118.247 14.044V15.58C118.247 15.82 118.175 16.012 118.031 16.156C117.903 16.284 117.607 16.348 117.143 16.348L114.647 16.3C114.295 16.3 114.079 16.38 113.999 16.54C113.919 16.684 113.879 16.98 113.879 17.428ZM131.073 8.38C131.217 9.244 131.377 10.196 131.553 11.236C131.745 12.276 131.953 13.388 132.177 14.572C132.401 15.756 132.689 17.228 133.041 18.988C133.409 20.748 133.593 21.852 133.593 22.3C133.593 22.684 133.473 22.98 133.233 23.188C133.009 23.396 132.425 23.5 131.481 23.5H130.209C129.953 23.5 129.737 23.38 129.561 23.14C129.385 22.9 129.257 22.46 129.177 21.82C129.097 21.18 129.033 20.764 128.985 20.572C128.953 20.364 128.889 20.204 128.793 20.092C128.713 19.964 128.617 19.9 128.505 19.9H126.585C126.441 19.9 126.313 19.988 126.201 20.164C126.105 20.324 126.009 20.676 125.913 21.22C125.833 21.764 125.761 22.148 125.697 22.372C125.633 22.596 125.569 22.78 125.505 22.924C125.441 23.068 125.345 23.204 125.217 23.332C125.105 23.444 124.945 23.5 124.737 23.5H123.609C122.745 23.5 122.193 23.396 121.953 23.188C121.729 22.98 121.617 22.684 121.617 22.3C121.617 22.172 121.625 21.972 121.641 21.7C121.673 21.428 121.945 19.98 122.457 17.356C122.969 14.716 123.505 11.724 124.065 8.38C124.273 7.1 124.817 6.46 125.697 6.46H129.393C130.257 6.46 130.817 7.1 131.073 8.38ZM126.633 15.556L126.609 15.916C126.609 16.06 126.641 16.164 126.705 16.228C126.785 16.276 127.065 16.3 127.545 16.3C127.945 16.3 128.201 16.284 128.313 16.252C128.425 16.204 128.481 16.1 128.481 15.94L128.457 15.556C128.409 15.172 128.329 14.436 128.217 13.348C128.121 12.244 128.017 11.46 127.905 10.996C127.809 10.532 127.689 10.3 127.545 10.3C127.417 10.3 127.289 10.524 127.161 10.972C127.049 11.42 126.937 12.276 126.825 13.54C126.713 14.788 126.649 15.46 126.633 15.556ZM142.989 10.612V21.748C142.957 22.484 142.821 22.964 142.581 23.188C142.341 23.396 141.997 23.5 141.549 23.5H140.349C139.997 23.5 139.701 23.436 139.461 23.308C139.237 23.164 139.085 22.956 139.005 22.684C138.941 22.412 138.909 22.044 138.909 21.58V10.612C138.909 10.388 138.877 10.212 138.813 10.084C138.765 9.94 138.589 9.868 138.285 9.868L137.589 9.892C137.253 9.892 136.989 9.844 136.797 9.748C136.605 9.652 136.509 9.476 136.509 9.22V7.18C136.509 6.956 136.613 6.78 136.821 6.652C137.045 6.524 137.317 6.46 137.637 6.46H144.261C144.581 6.46 144.845 6.524 145.053 6.652C145.277 6.78 145.389 6.956 145.389 7.18V9.22C145.389 9.412 145.317 9.572 145.173 9.7C145.029 9.828 144.741 9.892 144.309 9.892L143.637 9.868C143.413 9.868 143.245 9.9 143.133 9.964C143.037 10.028 142.989 10.244 142.989 10.612ZM152.509 8.38V11.38C152.509 11.892 152.533 12.228 152.581 12.388C152.645 12.548 152.781 12.644 152.989 12.676C153.197 12.692 153.477 12.7 153.829 12.7C154.341 12.7 154.677 12.676 154.837 12.628C154.997 12.564 155.085 12.436 155.101 12.244C155.133 12.052 155.149 11.788 155.149 11.452V8.38C155.149 7.916 155.181 7.548 155.245 7.276C155.325 7.004 155.477 6.804 155.701 6.676C155.941 6.532 156.237 6.46 156.589 6.46H157.789C158.141 6.46 158.429 6.532 158.653 6.676C158.893 6.804 159.045 7.004 159.109 7.276C159.189 7.548 159.229 7.916 159.229 8.38V21.58C159.229 22.044 159.189 22.412 159.109 22.684C159.045 22.956 158.893 23.164 158.653 23.308C158.429 23.436 158.141 23.5 157.789 23.5H156.589C156.237 23.5 155.941 23.436 155.701 23.308C155.477 23.164 155.325 22.956 155.245 22.684C155.181 22.412 155.149 22.044 155.149 21.58V17.98C155.149 17.372 155.109 16.964 155.029 16.756C154.965 16.532 154.829 16.404 154.621 16.372C154.413 16.324 154.149 16.3 153.829 16.3H153.565C153.229 16.3 152.997 16.324 152.869 16.372C152.741 16.42 152.645 16.532 152.581 16.708C152.533 16.884 152.509 17.156 152.509 17.524V17.98V21.58C152.509 22.044 152.469 22.412 152.389 22.684C152.325 22.956 152.173 23.164 151.933 23.308C151.709 23.436 151.421 23.5 151.069 23.5H149.869C149.517 23.5 149.221 23.436 148.981 23.308C148.757 23.164 148.605 22.956 148.525 22.684C148.461 22.412 148.429 22.044 148.429 21.58V8.38C148.429 7.916 148.461 7.548 148.525 7.276C148.605 7.004 148.757 6.804 148.981 6.676C149.221 6.532 149.517 6.46 149.869 6.46H151.069C151.421 6.46 151.709 6.532 151.933 6.676C152.173 6.804 152.325 7.004 152.389 7.276C152.469 7.548 152.509 7.916 152.509 8.38ZM166.581 17.428V19.108C166.597 19.364 166.709 19.564 166.917 19.708C167.141 19.836 167.365 19.9 167.589 19.9L169.917 19.852C170.397 19.852 170.733 19.932 170.925 20.092C171.133 20.236 171.237 20.492 171.237 20.86V22.54C171.237 22.812 171.181 23.044 171.069 23.236C170.973 23.412 170.709 23.5 170.277 23.5H163.941C162.981 23.5 162.501 22.86 162.501 21.58V8.38C162.501 7.916 162.533 7.548 162.597 7.276C162.677 7.004 162.829 6.804 163.053 6.676C163.293 6.532 163.589 6.46 163.941 6.46H170.133C170.453 6.46 170.717 6.524 170.925 6.652C171.149 6.78 171.261 6.956 171.261 7.18V9.22C171.261 9.412 171.189 9.564 171.045 9.676C170.917 9.772 170.629 9.82 170.181 9.82L167.901 9.772C167.597 9.772 167.333 9.812 167.109 9.892C166.885 9.956 166.741 10.076 166.677 10.252C166.613 10.412 166.581 10.668 166.581 11.02C166.581 11.852 166.629 12.372 166.725 12.58C166.837 12.788 167.013 12.908 167.253 12.94C167.493 12.972 167.669 12.988 167.781 12.988L170.061 12.94C170.333 12.94 170.549 13.036 170.709 13.228C170.869 13.42 170.949 13.692 170.949 14.044V15.58C170.949 15.82 170.877 16.012 170.733 16.156C170.605 16.284 170.309 16.348 169.845 16.348L167.349 16.3C166.997 16.3 166.781 16.38 166.701 16.54C166.621 16.684 166.581 16.98 166.581 17.428ZM175.927 6.46H180.607C182.063 6.46 183.191 6.908 183.991 7.804C184.791 8.684 185.191 10.036 185.191 11.86C185.191 12.628 185.151 13.244 185.071 13.708C185.007 14.156 184.855 14.564 184.615 14.932C184.375 15.284 184.103 15.588 183.799 15.844C183.671 15.956 183.495 16.068 183.271 16.18C183.047 16.276 182.895 16.364 182.815 16.444C182.735 16.524 182.695 16.708 182.695 16.996C182.695 17.396 182.743 17.78 182.839 18.148C182.951 18.516 183.095 18.78 183.271 18.94C183.447 19.1 183.623 19.18 183.799 19.18C183.895 19.18 183.991 19.172 184.087 19.156C184.199 19.14 184.303 19.124 184.399 19.108C184.495 19.076 184.551 19.06 184.567 19.06C184.839 19.06 185.055 19.164 185.215 19.372C185.375 19.58 185.455 20.06 185.455 20.812L185.431 22.708C185.431 22.996 185.327 23.22 185.119 23.38C184.927 23.54 184.551 23.62 183.991 23.62C183.463 23.62 182.943 23.508 182.431 23.284C181.919 23.06 181.463 22.668 181.063 22.108C180.663 21.548 180.375 20.916 180.199 20.212C180.071 19.7 179.911 19.236 179.719 18.82C179.543 18.404 179.359 18.1 179.167 17.908C178.975 17.7 178.839 17.596 178.759 17.596C178.631 17.596 178.567 17.788 178.567 18.172V21.58C178.567 22.044 178.527 22.412 178.447 22.684C178.383 22.956 178.231 23.164 177.991 23.308C177.767 23.436 177.479 23.5 177.127 23.5H175.447C175.239 23.5 175.047 23.436 174.871 23.308C174.711 23.18 174.607 22.98 174.559 22.708C174.511 22.42 174.487 22.044 174.487 21.58V8.38C174.487 7.916 174.519 7.548 174.583 7.276C174.663 7.004 174.815 6.804 175.039 6.676C175.279 6.532 175.575 6.46 175.927 6.46ZM179.647 9.7C179.295 9.7 179.023 9.748 178.831 9.844C178.639 9.924 178.543 10.22 178.543 10.732L178.567 12.1L178.543 13.3C178.543 13.604 178.583 13.836 178.663 13.996C178.759 14.156 179.087 14.236 179.647 14.236C180.527 14.236 180.967 13.524 180.967 12.1C180.967 11.636 180.911 11.212 180.799 10.828C180.703 10.428 180.543 10.14 180.319 9.964C180.111 9.788 179.887 9.7 179.647 9.7ZM191.535 23.5H189.591C189.175 23.5 188.887 23.42 188.727 23.26C188.567 23.1 188.487 22.86 188.487 22.54V20.14C188.487 19.932 188.543 19.724 188.655 19.516C188.767 19.292 189.079 19.18 189.591 19.18H191.535C191.887 19.18 192.127 19.228 192.255 19.324C192.399 19.404 192.487 19.54 192.519 19.732C192.551 19.908 192.567 20.044 192.567 20.14V22.54C192.567 22.748 192.535 22.94 192.471 23.116C192.407 23.276 192.295 23.38 192.135 23.428C191.991 23.476 191.791 23.5 191.535 23.5ZM199.867 8.38V21.58C199.867 22.044 199.827 22.412 199.747 22.684C199.683 22.956 199.531 23.164 199.291 23.308C199.067 23.436 198.779 23.5 198.427 23.5H197.227C196.875 23.5 196.579 23.436 196.339 23.308C196.115 23.164 195.963 22.956 195.883 22.684C195.819 22.412 195.787 22.044 195.787 21.58V8.38C195.787 7.916 195.819 7.548 195.883 7.276C195.963 7.004 196.115 6.804 196.339 6.676C196.579 6.532 196.875 6.46 197.227 6.46H198.427C198.779 6.46 199.067 6.532 199.291 6.676C199.531 6.804 199.683 7.004 199.747 7.276C199.827 7.548 199.867 7.916 199.867 8.38ZM203.06 14.98L203.036 13.036C203.036 11.628 203.116 10.532 203.276 9.748C203.452 8.964 203.756 8.308 204.188 7.78C204.636 7.252 205.236 6.884 205.988 6.676C206.74 6.452 207.564 6.34 208.46 6.34C209.324 6.34 210.06 6.436 210.668 6.628C211.292 6.804 211.82 7.092 212.252 7.492C212.7 7.876 213.036 8.46 213.26 9.244C213.5 10.012 213.62 11.244 213.62 12.94L213.692 17.068C213.692 18.684 213.54 19.94 213.236 20.836C212.932 21.732 212.404 22.42 211.652 22.9C210.9 23.38 209.836 23.62 208.46 23.62C207.26 23.62 206.284 23.46 205.532 23.14C204.796 22.804 204.244 22.348 203.876 21.772C203.524 21.196 203.292 20.524 203.18 19.756C203.084 18.988 203.036 18.052 203.036 16.948L203.06 14.98ZM208.34 9.7C207.94 9.7 207.652 9.78 207.476 9.94C207.3 10.1 207.196 10.284 207.164 10.492C207.148 10.7 207.14 10.876 207.14 11.02V18.58C207.14 19.236 207.236 19.684 207.428 19.924C207.636 20.148 207.94 20.26 208.34 20.26C208.74 20.26 209.036 20.148 209.228 19.924C209.436 19.684 209.54 19.236 209.54 18.58V11.02C209.54 10.604 209.484 10.308 209.372 10.132C209.26 9.94 209.092 9.82 208.868 9.772C208.66 9.724 208.484 9.7 208.34 9.7Z" fill="white"/>
<g clip-path="url(#clip0_196_766)">
<path fill-rule="evenodd" clip-rule="evenodd" d="M20.2131 8.52617C20.1109 8.66944 20.0066 8.80929 19.9003 8.94567C17.8992 9.16459 16.4379 9.96587 16.1809 11.1751C16.1663 11.2438 16.1557 11.3129 16.1492 11.3823C15.771 11.1915 15.3436 11.084 14.8911 11.084C14.4133 11.084 13.9635 11.2039 13.5701 11.4151C13.5098 10.2864 13.2303 9.04535 12.7167 7.80615C12.5465 7.3952 12.3579 7.0023 12.1543 6.63005C12.4808 5.70363 12.9747 4.7476 13.6293 3.82995C15.8797 0.675057 19.1776 -0.83133 20.9957 0.465219C22.8139 1.76242 22.4638 5.37124 20.2131 8.52617ZM12.8936 11.9234C12.8778 11.9127 12.8621 11.9018 12.8466 11.8907C11.5572 10.9711 11.3583 8.88869 12.1543 6.63005C10.5842 3.759 8.12148 2.11485 6.29481 2.87148C4.23193 3.72648 3.7622 7.32157 5.24557 10.9017C5.66214 11.9073 6.18854 12.8047 6.77588 13.5565C3.1784 13.3261 0.204549 14.5385 0.00999235 16.3793C-0.194475 18.3183 2.76363 20.2205 6.61739 20.6281C7.73036 20.7459 8.7963 20.7261 9.7545 20.5917C7.95058 23.7025 7.71084 26.8953 9.26827 27.8896C10.9119 28.9386 13.9349 27.1411 16.0206 23.8751C16.7361 22.7548 17.2483 21.6072 17.5462 20.5405C17.6991 20.8517 17.867 21.1636 18.05 21.4739C20.0177 24.8127 22.9745 26.716 24.6545 25.7255C26.3339 24.7349 26.1003 21.2258 24.1324 17.8873C23.7738 17.2788 23.3823 16.7179 22.9716 16.2136C26.4887 16.788 29.5253 15.8918 29.9075 14.0961C30.3127 12.1889 27.5687 9.98906 23.7784 9.18234C22.391 8.88696 21.0557 8.81926 19.9003 8.94567C18.9265 10.1953 17.791 11.1504 16.6761 11.7277C17.2169 12.1765 17.5858 12.8252 17.6696 13.5604C19.0511 12.9027 21.1913 14.027 22.9716 16.2136C22.7527 16.1778 22.5319 16.1364 22.3098 16.0891C20.4207 15.6871 18.7914 14.939 17.6825 14.0534C17.6351 14.8304 17.2705 15.5217 16.7165 15.9995C16.752 16.0189 16.7868 16.0395 16.8211 16.0614C17.9011 16.7507 18.1169 18.4973 17.5462 20.5405C16.7896 19 16.4038 17.4762 16.4065 16.2315C15.9699 16.5135 15.4496 16.6773 14.8911 16.6773C14.4601 16.6773 14.0518 16.5797 13.6871 16.4055C13.6533 16.425 13.6193 16.445 13.5854 16.4654C13.5447 16.4033 13.5011 16.3417 13.4545 16.2806C13.0899 16.0618 12.7793 15.7624 12.5474 15.4069C12.511 15.3799 12.4741 15.353 12.4365 15.3263C12.4492 15.314 12.4618 15.3014 12.4744 15.2888C12.2329 14.8752 12.0945 14.3941 12.0945 13.8806C12.0945 13.1186 12.3993 12.4278 12.8936 11.9234ZM13.5854 16.4654C12.3711 17.1942 11.1043 18.4539 10.0687 20.0758C9.95919 20.2473 9.85444 20.4193 9.7545 20.5917C12.1143 20.2606 13.8205 19.2342 13.9661 17.855C14.016 17.3826 13.8782 16.9123 13.5854 16.4654ZM12.4365 15.3263C12.2117 15.5446 11.955 15.7172 11.6673 15.8363C10.1835 16.4512 8.27982 15.4813 6.77588 13.5565C6.96852 13.5688 7.16293 13.5853 7.3588 13.606C9.42541 13.8245 11.2346 14.4729 12.4365 15.3263Z" fill="white"/>
</g>
<defs>
<clipPath id="clip0_196_766">
<rect width="30" height="28.2203" fill="white"/>
</clipPath>
</defs>
</svg>
