<svg width="16" height="16" viewBox="0 0 16 16" fill="none" xmlns="http://www.w3.org/2000/svg">
<g clip-path="url(#clip0_196_764)">
<path fill-rule="evenodd" clip-rule="evenodd" d="M10.7803 4.83406C10.7258 4.91528 10.6702 4.99458 10.6135 5.0719C9.54622 5.19602 8.7669 5.65032 8.6298 6.33593C8.62201 6.37487 8.61639 6.41405 8.61291 6.45339C8.41121 6.34521 8.18327 6.28428 7.94194 6.28428C7.68712 6.28428 7.44721 6.35221 7.2374 6.47197C7.20521 5.83207 7.05615 5.12842 6.78225 4.42583C6.69146 4.19283 6.59088 3.97007 6.48229 3.75902C6.65643 3.23377 6.91982 2.69173 7.26898 2.17146C8.46917 0.382735 10.228 -0.471337 11.1977 0.263764C12.1674 0.999234 11.9807 3.04532 10.7803 4.83406ZM6.87657 6.76017C6.86815 6.75412 6.8598 6.74795 6.8515 6.74165C6.16382 6.22025 6.05775 5.03959 6.48229 3.75902C5.6449 2.13123 4.33146 1.19905 3.35723 1.62803C2.25703 2.11279 2.00651 4.15109 2.79764 6.18088C3.01981 6.75103 3.30056 7.25985 3.6138 7.68607C1.69514 7.55549 0.109093 8.24282 0.00532925 9.28651C-0.10372 10.3859 1.47394 11.4643 3.52927 11.6955C4.12286 11.7622 4.69136 11.751 5.2024 11.6748C4.24031 13.4385 4.11245 15.2487 4.94308 15.8125C5.81967 16.4072 7.43193 15.3881 8.54431 13.5364C8.92591 12.9012 9.19911 12.2506 9.35798 11.6458C9.4395 11.8222 9.52907 11.999 9.62666 12.175C10.6761 14.068 12.2531 15.1471 13.1491 14.5855C14.0447 14.0239 13.9201 12.0343 12.8706 10.1415C12.6794 9.7965 12.4706 9.4785 12.2515 9.19256C14.1273 9.51823 15.7469 9.01015 15.9506 7.99204C16.1668 6.91073 14.7033 5.66346 12.6818 5.20608C11.9419 5.03861 11.2297 5.00023 10.6135 5.0719C10.0941 5.78041 9.48854 6.3219 8.89394 6.64921C9.18235 6.90368 9.37909 7.27146 9.4238 7.68832C10.1606 7.31539 11.302 7.95282 12.2515 9.19256C12.1348 9.17228 12.017 9.14878 11.8986 9.12197C10.891 8.89407 10.0221 8.46991 9.43066 7.96784C9.4054 8.40837 9.21093 8.80032 8.91545 9.07116C8.93437 9.08219 8.95298 9.09389 8.97127 9.1063C9.54726 9.49711 9.66233 10.4873 9.35798 11.6458C8.95443 10.7724 8.74871 9.90844 8.75013 9.20272C8.51726 9.36264 8.2398 9.45545 7.94194 9.45545C7.71203 9.45545 7.49428 9.40014 7.2998 9.30138C7.28174 9.31246 7.26365 9.32378 7.24555 9.33532C7.22387 9.30014 7.20058 9.2652 7.17576 9.23054C6.9813 9.10654 6.81563 8.93676 6.69193 8.73522C6.67253 8.71988 6.65283 8.70465 6.6328 8.68953C6.63958 8.68252 6.64632 8.67541 6.653 8.66824C6.52422 8.43376 6.45041 8.16098 6.45041 7.86986C6.45041 7.43784 6.61295 7.04615 6.87657 6.76017ZM7.24555 9.33532C6.59793 9.74855 5.92228 10.4628 5.36997 11.3823C5.31157 11.4795 5.2557 11.5771 5.2024 11.6748C6.46096 11.4871 7.37096 10.9052 7.44858 10.1232C7.4752 9.85535 7.4017 9.58874 7.24555 9.33532ZM6.6328 8.68953C6.51291 8.8133 6.37599 8.9111 6.22254 8.97868C5.43121 9.32728 4.4159 8.77741 3.6138 7.68607C3.71654 7.69306 3.82023 7.7024 3.92469 7.71415C5.02689 7.83802 5.99177 8.20565 6.6328 8.68953Z" fill="black"/>
</g>
<defs>
<clipPath id="clip0_196_764">
<rect width="16" height="16" fill="white"/>
</clipPath>
</defs>
</svg>
